<?xml version="1.0" encoding="iso-8859-1"?>
<!-- Generator: Adobe Illustrator 19.0.0, SVG Export Plug-In . SVG Version: 6.00 Build 0)  -->
<svg version="1.1" id="Capa_1" xmlns="http://www.w3.org/2000/svg" xmlns:xlink="http://www.w3.org/1999/xlink" x="0px" y="0px"
	 viewBox="0 0 512 512" style="enable-background:new 0 0 512 512;" xml:space="preserve">
<path style="fill:#4BC999;" d="M512,256c0,83.08-39.581,156.923-100.916,203.692c-31.963,24.377-69.841,41.399-111.104,48.536
	C285.696,510.715,270.994,512,256,512c-16.06,0-31.775-1.484-47.02-4.315c-7.795-1.442-15.464-3.239-22.988-5.371
	c-2.623-0.752-5.235-1.536-7.826-2.361c-16.332-5.204-31.953-12.006-46.676-20.219c-9.759-5.444-19.122-11.504-28.045-18.129
	c-8.035-5.977-15.715-12.413-22.988-19.278c-0.24-0.23-0.481-0.449-0.711-0.679c-2.038-1.923-4.033-3.887-5.987-5.883
	c-18.223-18.453-33.656-39.664-45.61-62.955c-1.16-2.236-2.278-4.493-3.365-6.771c-5.287-11.086-9.801-22.622-13.469-34.523
	c-0.136-0.428-0.261-0.857-0.387-1.296c-0.742-2.435-1.442-4.88-2.111-7.346c-1.233-4.598-2.351-9.247-3.333-13.939
	C1.891,291.861,0,274.15,0,256c0-10.156,0.596-20.177,1.745-30.02c0.355-3.051,0.763-6.081,1.233-9.101
	c0.679-4.483,1.484-8.934,2.414-13.343c0.93-4.483,1.985-8.913,3.145-13.302c1.954-7.377,4.232-14.629,6.813-21.723
	C51.085,70.207,145.345,0,256,0s204.915,70.207,240.65,168.511c0.763,2.09,1.494,4.19,2.194,6.301
	c8.411,25.14,13.019,52.005,13.145,79.935C512,255.164,512,255.582,512,256z"/>
<g>
	<path style="fill:#5BD3A2;" d="M467.643,291.184L467.643,291.184c0-7.358-5.965-13.323-13.324-13.323h-4.441
		c-7.358,0-13.324-5.965-13.324-13.324l0,0c0-7.358-5.965-13.323-13.323-13.323H218.947c-7.358,0-13.324,5.965-13.324,13.323l0,0
		c0,7.358,5.965,13.324,13.324,13.324h82.159c7.358,0,13.324,5.965,13.324,13.323l0,0c0,7.358-5.965,13.324-13.324,13.324h-37.419
		c-7.358,0-13.323,5.965-13.323,13.323l0,0c0,7.358,5.965,13.324,13.323,13.324h11.304c7.358,0,13.323,5.965,13.323,13.323l0,0
		c0,7.358-5.965,13.324-13.323,13.324h-40.5c-7.358,0-13.324,5.965-13.324,13.323l0,0c0,7.358,5.965,13.324,13.324,13.324h191.876
		c7.358,0,13.324-5.965,13.324-13.324l0,0c0-7.358,5.965-13.323,13.323-13.323h1.309c7.358,0,13.323-5.965,13.323-13.324l0,0
		c0-7.358-5.965-13.323-13.323-13.323h-24.426c-7.358,0-13.324-5.965-13.324-13.324l0,0c0-7.358,5.965-13.323,13.324-13.323h24.426
		C461.679,304.507,467.643,298.542,467.643,291.184z"/>
	<path style="fill:#5BD3A2;" d="M411.084,459.692c-31.963,24.377-69.841,41.399-111.104,48.536h-37.052
		c-3.678,0-7.011-1.494-9.415-3.908c-2.414-2.403-3.908-5.736-3.908-9.415c0-7.356,5.966-13.322,13.322-13.322h3.709
		c3.678,0,7.011-1.494,9.425-3.908c2.403-2.403,3.897-5.736,3.897-9.415c0-7.356-5.966-13.322-13.322-13.322h-36.321
		c-3.678,0-7.011-1.494-9.425-3.908c-2.403-2.403-3.897-5.736-3.897-9.415c0-7.356,5.966-13.322,13.322-13.322h112.274
		c7.356,0,13.322,5.966,13.322,13.322c0,7.356,5.966,13.322,13.322,13.322h31.65c3.678,0,7.011,1.494,9.425,3.908
		C410.582,459.118,410.843,459.4,411.084,459.692z"/>
	<path style="fill:#5BD3A2;" d="M511.99,254.746h-1.181c-3.678,0-7.011-1.494-9.425-3.897c-2.403-2.414-3.897-5.747-3.897-9.425
		c0-7.356-5.966-13.322-13.322-13.322h-63.666c-3.678,0-7.011-1.494-9.415-3.897c-2.414-2.414-3.908-5.747-3.908-9.425
		c0-7.356,5.966-13.322,13.322-13.322h42.935c3.678,0,7.011-1.494,9.425-3.897c2.403-2.414,3.897-5.747,3.897-9.425
		c0-7.356,5.966-13.322,13.322-13.322h8.767C507.256,199.952,511.864,226.816,511.99,254.746z"/>
	<path style="fill:#5BD3A2;" d="M161.165,230.201c0,7.356-5.966,13.322-13.322,13.322H42.36c-3.678,0-7.011-1.494-9.425-3.897
		c-2.403-2.414-3.897-5.747-3.897-9.425c0-7.356-5.956-13.322-13.322-13.322H2.978c0.679-4.483,1.484-8.934,2.414-13.343
		c0.93-4.483,1.985-8.913,3.145-13.302h112.661c7.356,0,13.322,5.966,13.322,13.322c0,3.678,1.484,7.011,3.897,9.425
		c2.414,2.403,5.736,3.897,9.425,3.897c3.678,0,7.011,1.494,9.415,3.897C159.671,223.19,161.165,226.523,161.165,230.201z"/>
</g>
<path style="fill:#34ABE0;" d="M496.65,168.511H15.35c14.848-40.845,39.8-76.842,71.837-104.97
	c27.669-24.283,60.625-42.705,96.914-53.3C206.911,3.574,231.037,0,256,0c69.433,0,132.409,27.638,178.521,72.516
	c23.322,22.695,42.318,49.789,55.662,79.945C492.523,157.717,494.676,163.077,496.65,168.511z"/>
<g>
	<path style="fill:#78CAEF;" d="M490.182,152.461H384.428c-3.678,0-7.011-1.494-9.415-3.908c-2.414-2.403-3.908-5.736-3.908-9.415
		c0-7.356,5.966-13.322,13.322-13.322h3.699c3.678,0,7.011-1.494,9.415-3.908c2.414-2.403,3.908-5.736,3.908-9.415
		c0-7.367-5.966-13.322-13.322-13.322h-36.31c-3.678,0-7.011-1.494-9.425-3.908c-2.403-2.403-3.897-5.736-3.897-9.415
		c0-7.367,5.956-13.333,13.322-13.333h82.704C457.843,95.211,476.839,122.305,490.182,152.461z"/>
	<path style="fill:#78CAEF;" d="M291.046,76.863c0,7.356-5.966,13.322-13.322,13.322H151.155c-3.678,0-7.011-1.494-9.425-3.908
		c-2.403-2.403-3.897-5.736-3.897-9.415c0-7.356-5.966-13.322-13.322-13.322H87.186c27.669-24.283,60.625-42.705,96.914-53.3h72.892
		c3.689,0,7.011,1.494,9.425,3.897c2.414,2.414,3.897,5.747,3.897,9.425c0,7.367-5.956,13.333-13.322,13.333h-42.924
		c-7.367,0-13.333,5.956-13.333,13.322c0,7.356,5.966,13.322,13.333,13.322h63.655c3.678,0,7.011,1.494,9.415,3.908
		C289.552,69.851,291.046,73.185,291.046,76.863z"/>
</g>
<g>
	<path style="fill:#FFD15C;" d="M32.834,218.486c-6.834,0-13.548-0.333-20.141-1c-2.046-0.207-3.532-2.04-3.284-4.082v-0.003
		c0.241-1.989,2.037-3.393,4.03-3.191c69.071,6.974,139.827-25.76,187.367-54.748c44.559-27.169,77.399-56.076,86.621-64.492
		c1.467-1.339,3.729-1.26,5.102,0.174l0.002,0.002c1.418,1.483,1.342,3.842-0.173,5.224c-9.481,8.648-42.755,37.904-87.743,65.335
		c-31.337,19.108-62.172,33.631-91.652,43.166C84.953,213.931,58.101,218.486,32.834,218.486z"/>
	<path style="fill:#FFD15C;" d="M299.917,166.933c0,0.93-0.355,1.87-1.076,2.581c-5.956,5.914-21.723,21.222-43.854,40.093
		c-6.416,5.465-13.364,11.243-20.762,17.168c0,0,0,0.01-0.01,0.01c-11.358,9.101-23.782,18.568-36.969,27.909
		c-35.109,24.858-68.681,43.896-99.798,56.581c-30.919,12.601-59.496,18.954-85.253,18.954c-0.418,0-0.846,0-1.264-0.01
		c-0.742-2.435-1.442-4.88-2.111-7.346c25.652,0.596,54.45-5.559,85.87-18.369c30.595-12.476,63.676-31.242,98.335-55.777
		c21.211-15.015,40.427-30.396,56.372-43.959c0.867-0.731,1.714-1.463,2.56-2.184c21.076-18.066,36.039-32.611,41.733-38.264
		c1.411-1.4,3.689-1.411,5.12-0.021C299.551,165.021,299.917,165.972,299.917,166.933z"/>
</g>
<path style="fill:#5C5E70;" d="M508.353,97.719L438.439,6.008c-1.567-2.027-4.002-3.344-6.75-3.344h-78.054
	c-2.759,0-5.204,1.317-6.75,3.354l-0.01-0.01l-69.914,91.711h59.507l-59.507,78.043h68.169v162.377h17v-14.535l30.532-30.521
	l30.521,30.521v14.535h17V175.762h68.169l-59.496-78.043L508.353,97.719L508.353,97.719z M345.13,158.762h-33.823l33.823-44.377
	V158.762z M345.13,80.718h-33.823l33.823-44.387V80.718z M414.438,19.665l-21.776,21.786l-21.786-21.786
	C370.876,19.665,414.438,19.665,414.438,19.665z M370.876,158.762l21.786-21.776l21.776,21.776H370.876z M414.438,175.762
	l-21.776,21.786l-21.786-21.786H414.438z M370.876,97.719h43.562l-21.776,21.776L370.876,97.719z M370.876,80.718l21.786-21.786
	l21.776,21.786H370.876z M362.13,28.411l21.786,21.776L362.13,71.973V28.411z M362.13,106.454l21.786,21.786l-21.786,21.776V106.454
	z M362.13,184.508l21.786,21.776L362.13,228.07V184.508z M362.13,306.124v-43.572l21.786,21.786L362.13,306.124z M362.381,245.311
	l30.281-30.281l30.281,30.281l-30.281,30.281L362.381,245.311z M423.184,306.124l-21.786-21.786l21.786-21.786V306.124z
	 M423.184,228.07l-21.786-21.786l21.786-21.776V228.07z M423.184,150.016l-21.786-21.776l21.786-21.786V150.016z M423.184,71.973
	l-21.786-21.786l21.786-21.776V71.973z M440.184,36.331l33.834,44.387h-33.834V36.331z M474.018,158.762h-33.834v-44.377
	L474.018,158.762z"/>
<g>
	<path style="fill:#FFD15C;" d="M277.932,220.655l-0.002-0.019c-0.189-1.938,1.17-3.688,3.097-3.971
		c9.339-1.37,36.736-6.335,70.566-21.062c37.835-16.47,91.592-48.832,134.421-109.771c1.155-1.644,3.408-2.067,5.065-0.93
		l0.006,0.004c1.672,1.147,2.099,3.445,0.933,5.103c-43.883,62.45-98.992,95.575-137.777,112.417
		c-34.806,15.114-62.393,20.092-72.164,21.49C280.019,224.214,278.134,222.725,277.932,220.655z"/>
	<path style="fill:#FFD15C;" d="M266.441,324.061l-0.001-0.023c-0.082-1.922,1.333-3.581,3.245-3.787
		c9.12-0.986,35.767-5.086,69.666-21.181c38.177-18.125,93.538-55.57,141.772-131.232c1.081-1.696,3.322-2.215,5.026-1.148
		l0.003,0.002c1.717,1.075,2.237,3.353,1.148,5.061c-49.287,77.321-106.035,115.586-145.196,134.105
		c-34.937,16.523-61.914,20.671-71.631,21.682C268.376,327.76,266.53,326.169,266.441,324.061z"/>
</g>
<path style="fill:#5C5E70;" d="M301.16,225.98l-94.532-123.998l-0.01,0.01c-2.1-2.748-5.402-4.535-9.132-4.535H91.951
	c-3.73,0-7.032,1.787-9.132,4.535l-0.01-0.01L5.392,203.536c-1.546,7.367-2.759,14.858-3.647,22.444h66.988L5.486,308.935
	c1.609,7.659,3.553,15.193,5.831,22.58h69.141v110.811c7.272,6.865,14.952,13.302,22.988,19.278v-12.737l29.456,29.456l-1.411,1.411
	c14.723,8.213,30.344,15.015,46.676,20.219l-21.629-21.629l29.456-29.456v53.447c7.523,2.132,15.193,3.929,22.988,5.371v-176.17
	h92.181L220.703,225.98L301.16,225.98L301.16,225.98z M80.457,308.527H34.712l45.746-60.008V308.527z M80.457,202.992H34.712
	l45.746-60.008V202.992z M174.174,120.445l-29.456,29.456l-29.456-29.456C115.263,120.445,174.174,120.445,174.174,120.445z
	 M115.263,308.527l29.456-29.456l29.456,29.456H115.263z M174.174,331.515l-29.456,29.456l-29.456-29.456H174.174z M115.263,225.98
	h58.911l-29.456,29.456L115.263,225.98z M115.263,202.992l29.456-29.456l29.456,29.456H115.263z M103.445,132.263l29.456,29.456
	l-29.456,29.456V132.263z M103.445,237.798l29.456,29.456l-29.456,29.456V237.798z M103.445,343.333l29.456,29.456l-29.456,29.456
	V343.333z M144.718,466.505l-40.95-40.95l40.95-40.95l40.95,40.95L144.718,466.505z M185.992,402.244l-29.456-29.456l29.456-29.456
	V402.244z M185.992,296.709l-29.456-29.456l29.456-29.456V296.709z M185.992,191.175l-29.456-29.456l29.456-29.456V191.175z
	 M208.98,142.984l45.746,60.008H208.98V142.984z M254.725,308.527H208.98v-60.008L254.725,308.527z"/>
<g>
	<path style="fill:#EDBB4C;" d="M255.822,313.616c-6.008,9.112-25.14,36.091-58.034,64.199
		c-26.634,22.758-66.288,49.246-118.042,63.833c-2.038-1.923-4.033-3.887-5.987-5.883c15.6-4.127,30.835-9.571,45.631-16.3
		c26.007-11.828,50.719-27.658,73.446-47.041c31.995-27.293,51.064-54.126,56.863-62.851c1.087-1.63,3.26-2.111,4.932-1.097
		l0.021,0.01C256.428,309.551,256.961,311.881,255.822,313.616z"/>
	<path style="fill:#EDBB4C;" d="M256.502,206.127c0,0.648-0.167,1.317-0.543,1.912c-0.293,0.47-0.616,0.993-0.972,1.567
		c-8.453,13.427-35.129,52.673-79.559,89.757c-31.995,26.697-66.811,47.114-103.508,60.688c-14.305,5.298-28.912,9.55-43.771,12.758
		c-1.16-2.236-2.278-4.493-3.365-6.771c15.151-3.166,30.03-7.45,44.596-12.842c35.913-13.291,70.008-33.29,101.355-59.455
		c28.881-24.106,50.072-49.058,63.488-66.967c7.471-9.968,12.528-17.753,15.172-22.006c0.115-0.199,0.23-0.387,0.345-0.564
		c0.512-0.846,1.327-1.4,2.215-1.62c0.878-0.23,1.839-0.125,2.685,0.355C255.833,203.619,256.502,204.852,256.502,206.127z"/>
</g>
<g>
</g>
<g>
</g>
<g>
</g>
<g>
</g>
<g>
</g>
<g>
</g>
<g>
</g>
<g>
</g>
<g>
</g>
<g>
</g>
<g>
</g>
<g>
</g>
<g>
</g>
<g>
</g>
<g>
</g>
</svg>
